<?xml version="1.0" encoding="UTF-8"?><svg id="Layer_2" xmlns="http://www.w3.org/2000/svg" viewBox="0 0 523.37 233.21"><defs><style>.cls-1{fill:#06c167;}</style></defs><rect class="cls-1" width="523.37" height="233.21"/><g><path d="M272.09,103.75h44.64v10.86h-32.58v15.53h31.71v10.53h-31.71v15.75h32.58v10.86h-44.64v-63.53Zm165.93,64.73c13.68,0,21.4-6.52,21.4-15.53,0-6.41-4.56-11.19-14.12-13.25l-10.1-2.06c-5.86-1.09-7.71-2.17-7.71-4.34,0-2.82,2.82-4.56,8.04-4.56,5.65,0,9.77,1.52,10.97,6.73h11.84c-.65-9.77-7.71-16.29-22.05-16.29-12.38,0-21.07,5.1-21.07,14.99,0,6.84,4.78,11.29,15.1,13.47l11.29,2.61c4.45,.87,5.65,2.06,5.65,3.91,0,2.93-3.37,4.78-8.8,4.78-6.84,0-10.75-1.52-12.27-6.73h-11.95c1.74,9.77,9.01,16.29,23.78,16.29Zm-26.99-11.84h-8.91c-2.72,0-4.45-1.19-4.45-3.69v-21.94h13.36v-10.64h-13.36v-13.36h-11.95v13.36h-9.01v10.64h9.01v24.98c0,6.3,4.45,11.29,12.49,11.29h12.82v-10.64Zm-39.36-36.27v46.92h-11.84v-4.24c-4.13,3.48-9.34,5.43-14.99,5.43-14.01,0-24.98-10.97-24.98-24.65s10.97-24.65,24.98-24.65c5.65,0,10.86,1.95,14.99,5.43v-4.24h11.84Zm-11.62,23.46c0-8.04-6.3-14.34-14.23-14.34s-14.23,6.3-14.23,14.34,6.41,14.34,14.23,14.34,14.23-6.3,14.23-14.34Z"/><path d="M89.76,159.84c8.8,0,15.61-6.81,15.61-16.88v-39.21h9.53v63.53h-9.44v-5.9c-4.27,4.45-10.16,6.99-16.79,6.99-13.61,0-24.05-9.89-24.05-24.87v-39.75h9.53v39.21c0,10.26,6.72,16.88,15.61,16.88m32.22,7.44h9.08v-5.81c4.18,4.27,10.07,6.9,16.52,6.9,13.61,0,24.32-10.8,24.32-24.14s-10.71-24.23-24.32-24.23c-6.44,0-12.25,2.63-16.43,6.9v-23.14h-9.17v63.53Zm24.96-6.99c-8.89,0-15.97-7.17-15.97-16.06s7.17-16.06,15.97-16.06,15.88,7.08,15.88,16.06-7.17,16.06-15.88,16.06m52.37-40.21c-13.52,0-23.78,10.98-23.78,24.05,0,13.8,10.71,24.14,24.6,24.14,8.44,0,15.34-3.72,19.97-9.89l-6.63-4.9c-3.45,4.63-7.99,6.81-13.34,6.81-7.81,0-14.07-5.63-15.34-13.16h37.66v-3c0-13.8-9.8-24.05-23.14-24.05m-14.34,19.79c1.63-7.08,7.35-11.8,14.16-11.8s12.52,4.72,14.07,11.8h-28.23m65.89-10.71v-8.53h-3.18c-5.08,0-8.8,2.36-11.07,6.08v-5.72h-9.08v46.29h9.17v-26.32c0-7.17,4.36-11.8,10.35-11.8h3.81Z"/></g><g><path d="M166.66,73.64c0-1.35,.25-2.61,.76-3.79,.51-1.17,1.21-2.19,2.11-3.07,.9-.87,1.95-1.56,3.16-2.07,1.21-.51,2.51-.76,3.92-.76s2.68,.25,3.89,.76c1.21,.51,2.26,1.2,3.16,2.07,.9,.87,1.6,1.89,2.11,3.07,.51,1.17,.76,2.44,.76,3.79s-.25,2.61-.76,3.79c-.51,1.17-1.21,2.2-2.11,3.07-.9,.87-1.95,1.56-3.16,2.07-1.21,.51-2.51,.76-3.89,.76s-2.71-.25-3.92-.76c-1.21-.51-2.26-1.2-3.16-2.07-.9-.87-1.6-1.89-2.11-3.07-.51-1.17-.76-2.44-.76-3.79Zm3.68,0c0,.91,.16,1.75,.49,2.52,.33,.77,.77,1.45,1.33,2.03,.56,.58,1.22,1.03,1.99,1.35,.76,.32,1.58,.48,2.45,.48s1.69-.16,2.45-.48c.76-.32,1.43-.77,1.99-1.35,.56-.58,1-1.25,1.32-2.03,.32-.77,.48-1.61,.48-2.52s-.16-1.75-.48-2.52c-.32-.77-.76-1.44-1.32-2.01-.56-.57-1.22-1.02-1.99-1.35-.76-.33-1.58-.49-2.45-.49s-1.69,.16-2.45,.49c-.76,.33-1.43,.78-1.99,1.35-.56,.57-1,1.24-1.33,2.01-.33,.77-.49,1.61-.49,2.52Z"/><path d="M191.98,82.97v-18.66h7.6c.8,0,1.54,.14,2.23,.43,.68,.28,1.28,.68,1.8,1.19,.52,.51,.92,1.1,1.21,1.77,.29,.68,.44,1.4,.44,2.19,0,1.14-.32,2.16-.95,3.05s-1.45,1.55-2.47,1.96l4.64,8.08h-4.05l-4.24-7.62h-2.61v7.62h-3.6Zm3.6-15.52v4.88h3.41c.8,0,1.44-.24,1.92-.71,.48-.47,.72-1.05,.72-1.75s-.24-1.27-.72-1.73c-.48-.46-1.12-.69-1.92-.69h-3.41Z"/><path d="M228.14,73.64c0,1.32-.25,2.54-.76,3.67-.51,1.13-1.2,2.12-2.07,2.96-.87,.84-1.89,1.51-3.07,1.99-1.17,.48-2.44,.72-3.79,.72h-7.39v-18.66h7.39c1.35,0,2.61,.24,3.79,.72,1.17,.48,2.19,1.14,3.07,1.99,.87,.84,1.56,1.84,2.07,2.97,.51,1.14,.76,2.36,.76,3.65Zm-13.46-6.19v12.37h3.41c.89,0,1.72-.16,2.49-.48,.77-.32,1.45-.76,2.03-1.32,.58-.56,1.03-1.21,1.36-1.96,.33-.75,.49-1.56,.49-2.43s-.16-1.68-.49-2.44c-.33-.75-.78-1.41-1.36-1.96-.58-.55-1.25-.99-2.03-1.31-.77-.32-1.6-.48-2.49-.48h-3.41Z"/><path d="M233.6,64.31h11.76v3.15h-8.16v4.61h7.89v3.07h-7.89v4.69h8.16v3.15h-11.76v-18.66Z"/><path d="M251.12,82.97v-18.66h7.6c.8,0,1.54,.14,2.23,.43,.68,.28,1.28,.68,1.8,1.19,.52,.51,.92,1.1,1.21,1.77,.29,.68,.44,1.4,.44,2.19,0,1.14-.32,2.16-.95,3.05s-1.45,1.55-2.47,1.96l4.64,8.08h-4.05l-4.24-7.62h-2.61v7.62h-3.6Zm3.6-15.52v4.88h3.41c.8,0,1.44-.24,1.92-.71,.48-.47,.72-1.05,.72-1.75s-.24-1.27-.72-1.73c-.48-.46-1.12-.69-1.92-.69h-3.41Z"/><path d="M297.03,77.77l3.44-13.46h3.73l-5.31,18.66h-3.63l-4.32-13.22-4.35,13.22h-3.63l-5.31-18.66h3.87l3.44,13.49,4.43-13.49h3.2l4.43,13.46Z"/><path d="M309,82.97v-18.66h3.6v18.66h-3.6Z"/><path d="M317.64,64.31h15.09v3.15h-5.76v15.52h-3.6v-15.52h-5.73v-3.15Z"/><path d="M337.76,82.97v-18.66h3.6v7.73h8.18v-7.73h3.6v18.66h-3.6v-7.79h-8.18v7.79h-3.6Z"/></g></svg>